<svg width="642" height="642" viewBox="0 0 642 642" fill="none" xmlns="http://www.w3.org/2000/svg">
<circle cx="320.999" cy="321" r="95.7019" fill="#00D873"/>
<path d="M530.348 321C530.348 369.434 513.554 416.369 482.828 453.809C452.102 491.249 409.345 516.876 361.842 526.325C314.339 535.774 265.029 528.46 222.314 505.628C179.6 482.797 146.123 445.861 127.588 401.114C109.053 356.367 106.607 306.578 120.667 260.23C134.726 213.881 164.422 173.842 204.693 146.934C244.964 120.025 293.319 107.913 341.52 112.66C389.72 117.408 434.784 138.721 469.031 172.969L422.707 219.293C399.177 195.763 368.215 181.119 335.098 177.858C301.982 174.596 268.758 182.918 241.09 201.406C213.421 219.893 193.018 247.403 183.359 279.247C173.699 311.091 175.379 345.299 188.114 376.043C200.848 406.787 223.849 432.165 253.197 447.851C282.544 463.538 316.423 468.563 349.061 462.071C381.699 455.579 411.075 437.971 432.186 412.248C453.297 386.525 464.835 354.277 464.835 321H530.348Z" fill="#2A2F2C"/>
<path d="M642 321C642 378.849 626.367 435.622 596.755 485.317C567.143 535.012 524.652 575.781 473.775 603.313C422.898 630.845 365.527 644.117 307.728 641.726C249.929 639.334 193.85 621.367 145.422 589.725C96.9938 558.084 58.0164 513.943 32.6114 461.972C7.20635 410 -3.68208 352.129 1.09753 294.478C5.87714 236.827 26.1471 181.539 59.764 134.461C93.3809 87.3828 139.095 50.2638 192.073 27.0293L217.565 85.1539C175.062 103.794 138.386 133.574 111.416 171.344C84.4461 209.114 68.184 253.47 64.3494 299.722C60.5148 345.974 69.2504 392.403 89.6323 434.098C110.014 475.794 141.285 511.207 180.138 536.592C218.99 561.978 263.981 576.392 310.352 578.311C356.723 580.23 402.751 569.582 443.568 547.494C484.385 525.405 518.475 492.697 542.232 452.828C565.989 412.959 578.531 367.411 578.531 321H642Z" fill="#2A2F2C"/>
</svg>
